<?xml version="1.0" encoding="UTF-8"?>
<svg id="Layer_1" xmlns="http://www.w3.org/2000/svg" version="1.1" xmlns:xlink="http://www.w3.org/1999/xlink" viewBox="0 0 49.44 42.86">
  <!-- Generator: Adobe Illustrator 30.0.0, SVG Export Plug-In . SVG Version: 2.1.1 Build 123)  -->
  <defs>
    <style>
      .st0 {
        fill: url(#linear-gradient);
      }
    </style>
    <linearGradient id="linear-gradient" x1="8.44" y1="37.89" x2="42.11" y2="4.22" gradientUnits="userSpaceOnUse">
      <stop offset="0" stop-color="#eec72d"/>
      <stop offset=".25" stop-color="#fffacd"/>
      <stop offset=".31" stop-color="#f6eebb"/>
      <stop offset=".41" stop-color="#e1d08e"/>
      <stop offset=".55" stop-color="#c0a047"/>
      <stop offset=".6" stop-color="#b69131"/>
      <stop offset=".87" stop-color="#e9d88a"/>
      <stop offset="1" stop-color="#fffacd"/>
    </linearGradient>
  </defs>
  <path class="st0" d="M45.96,9.51h-5.61v24.71h-7.71v-12.84l-7.3,9.12h-.16l-6.92-9.04v12.76h0v8.64h27.8c1.87,0,3.39-1.52,3.39-3.39V13c0-1.92-1.56-3.49-3.49-3.49M31.52,0L3.48.29c-1.93.02-3.48,1.59-3.48,3.52v24.18c0,1.95,1.58,3.53,3.53,3.53h7.1V9.48h8.19l.71.83h0l1.88,2.22,4.08,4.81h0l4.77-5.62h0l1.26-1.48s0-10.24,0-10.24Z"/>
</svg>