<?xml version="1.0" encoding="UTF-8"?>
<svg id="Layer_1" xmlns="http://www.w3.org/2000/svg" version="1.1" viewBox="0 0 132.69 40.6">
  <!-- Generator: Adobe Illustrator 30.0.0, SVG Export Plug-In . SVG Version: 2.1.1 Build 123)  -->
  <defs>
    <style>
      .st0 {
        fill: #0088cb;
      }

      .st1 {
        fill: #fff;
      }
    </style>
  </defs>
  <path class="st1" d="M43.54,9.01h-5.31v23.41h-7.3v-12.17l-6.91,8.64h-.15l-6.56-8.56v12.09h0v8.18h26.33c1.77,0,3.21-1.44,3.21-3.21V12.31c0-1.82-1.48-3.3-3.3-3.3"/>
  <path class="st0" d="M29.86,0L3.3.28c-1.83.02-3.3,1.51-3.3,3.33v22.91c0,1.85,1.5,3.34,3.34,3.34h6.73V8.98h7.76l.67.79,1.78,2.1,3.87,4.56,4.52-5.32,1.19-1.41V0Z"/>
  <g>
    <path class="st0" d="M57.91,7.86c.04.23.06.5.06.81v5.53c.01.42-.05.76-.2,1.04-.15.28-.37.47-.67.6-.3.12-.61.2-.95.23-.34.03-.74.04-1.21.01V6.24c0-.87,1.41-1.35,4.22-1.41.43-.01.81,0,1.14.01.33.02.59.04.77.06.18.02.36.07.54.16.17.09.28.14.32.16.04.02.13.09.25.22.13.13.2.2.21.21.12-.15.22-.25.28-.31.07-.06.21-.14.42-.24.22-.1.52-.17.92-.2.4-.03.91-.05,1.53-.05.73,0,1.37.11,1.93.32.56.22.98.47,1.27.77.29.3.53.63.71,1.01.18.38.3.68.35.92.05.24.08.45.08.64l-.02,7.57c-.47.03-.88.02-1.21-.01-.34-.03-.65-.11-.95-.23-.3-.12-.52-.32-.67-.6-.15-.28-.22-.62-.2-1.04v-5.33c0-.09,0-.16-.01-.21s-.03-.15-.08-.3c-.05-.16-.12-.28-.21-.36-.1-.09-.24-.17-.43-.25-.2-.08-.43-.12-.72-.12-.61,0-1.06.04-1.37.12v8.34h-3.17v-7.84c-.03-.42-.51-.63-1.45-.63-.61,0-1.1.08-1.48.24"/>
    <path class="st0" d="M70.92,12.28v-7.35c.47-.03.87-.02,1.21.01.34.03.65.11.95.23.29.12.52.32.67.6.15.28.21.62.2,1.04v5.41c.2,1,1.12,1.39,2.75,1.17.84-.11,1.33-.19,1.47-.24-.04-.23-.06-.5-.06-.81v-5.53c-.01-.42.05-.76.19-1.04.14-.28.36-.48.67-.6.3-.12.62-.2.96-.23.34-.03.74-.04,1.21-.01v9.84c0,.88-1.41,1.35-4.22,1.41-4,.11-6-1.19-6-3.9"/>
    <path class="st0" d="M98.61,13.45c.19.59.22,1.14.08,1.64-.13.5-.36.83-.69.99-.7.21-1.38.28-2.05.19-.67-.09-1.26-.27-1.78-.56-.52-.28-.94-.69-1.26-1.23-.32-.54-.48-1.15-.48-1.84V3.96c-.01-.42.05-.76.2-1.04.15-.28.37-.47.67-.6.3-.12.61-.2.95-.23.34-.03.74-.04,1.21,0v2.93h3.47v.15c0,.06-.01.19-.04.37-.03.19-.07.37-.12.55-.05.18-.14.37-.27.58-.13.21-.28.39-.45.54-.17.15-.41.27-.7.37-.3.1-.63.15-.99.15-.32,0-.62,0-.89.02l.02,4.66c-.01.36.06.64.22.84.16.19.38.31.66.34.28.03.55.04.83.02.28-.02.56-.05.85-.09.29-.04.48-.06.58-.06"/>
    <path class="st0" d="M100.24,7.7s0-.09-.02-.16c-.01-.07-.02-.2-.01-.39,0-.2.03-.38.06-.56s.1-.37.2-.6c.1-.22.24-.41.4-.57.17-.16.4-.29.69-.39.29-.11.63-.16,1.02-.16h.56c.35-.01.71-.01,1.08,0,.37.01.74.03,1.11.05.37.02.73.08,1.08.17.35.09.68.21,1,.34.31.13.6.33.87.57.26.25.49.54.69.86.2.32.35.72.45,1.19.11.47.16,1,.16,1.6v2.22c0,.55-.06,1.05-.18,1.5-.12.45-.27.82-.45,1.1-.18.28-.41.53-.68.75-.27.22-.52.37-.76.47-.24.1-.51.18-.82.24-.31.06-.55.1-.72.11-.17.01-.37.02-.6.02h-2.79s-.1,0-.18-.01c-.08,0-.23-.03-.45-.06-.22-.03-.43-.08-.64-.15-.2-.07-.43-.18-.68-.33-.25-.15-.46-.34-.64-.55-.17-.21-.32-.48-.44-.82-.12-.34-.18-.71-.18-1.13,0-.74.09-1.36.28-1.87.19-.5.47-.9.86-1.17.38-.28.81-.47,1.28-.58.47-.11,1.04-.16,1.72-.16,1.17,0,1.97-.08,2.39-.23.42-.16.64-.39.64-.72,0-.46-.44-.77-1.32-.93-.88-.16-1.82-.19-2.81-.1-.99.09-1.72.24-2.19.42M106.64,10.75c-.05.07-.13.15-.23.24-.1.09-.33.22-.68.37-.35.16-.71.23-1.09.23-.66,0-1.19.08-1.61.24-.41.16-.62.39-.62.69,0,.35.15.61.45.79.29.17.89.26,1.78.26.36,0,.64,0,.84-.01.2,0,.38-.06.55-.15.17-.09.29-.18.35-.26.07-.08.12-.25.17-.51.05-.26.07-.52.08-.76,0-.24.01-.62.01-1.13"/>
    <path class="st0" d="M120.84,8.73v7.35c-.47.03-.88.02-1.21-.01-.34-.03-.66-.11-.96-.23-.3-.12-.53-.32-.67-.6-.14-.28-.21-.62-.19-1.04v-5.41c-.2-.98-1.12-1.37-2.75-1.17-.85.11-1.34.19-1.47.24.04.23.06.5.06.81v5.53c.01.42-.06.76-.2,1.04-.15.28-.37.48-.67.6-.3.12-.61.2-.95.23-.34.03-.74.04-1.21.01V6.24c0-.87,1.41-1.35,4.22-1.41,3.99-.11,5.98,1.19,6,3.9"/>
    <path class="st0" d="M129.83,15.8c-.55.05-1.05.09-1.49.12-.44.03-.94.02-1.52-.02-.58-.04-1.09-.12-1.52-.23-.44-.11-.89-.3-1.34-.57-.46-.26-.83-.59-1.13-.97-.3-.38-.54-.88-.73-1.48-.19-.61-.28-1.3-.28-2.08,0-3.02,1.23-4.83,3.68-5.43,1.27-.32,3.05-.28,5.35.12.55.15.94.3,1.17.45.23.15.34.41.34.78v8.34s.02.03.02.04c.28.77.37,1.44.27,2.03-.1.59-.32,1.09-.65,1.51-.33.42-.78.77-1.35,1.04-.57.27-1.18.47-1.84.6-.65.13-1.35.19-2.09.19-.67,0-1.26-.02-1.77-.07-.5-.05-.88-.1-1.13-.16-.25-.06-.45-.13-.61-.2-.16-.07-.24-.13-.26-.16-.02-.03-.04-.06-.05-.07,0-1.14.17-1.81.52-2.01s1.21-.23,2.62-.09c.3.03.53.05.69.06,1.13,0,2-.16,2.61-.47.61-.32.77-.74.51-1.26M129.36,7.68h-.12c-.17,0-.42,0-.75-.01-.32,0-.57-.01-.76-.02-.18,0-.41,0-.7.02-.28.02-.51.06-.68.11-.17.05-.35.13-.55.24-.2.11-.36.24-.46.4-.11.16-.2.37-.27.63-.07.26-.11.55-.11.89,0,.58,0,.99.02,1.23.01.24.06.54.14.88.08.34.21.57.38.69.18.11.43.23.76.34.33.11.74.16,1.24.13.5-.03,1.12-.09,1.86-.18v-5.35Z"/>
    <path class="st0" d="M91.52,11.59c-.05-.09-.1-.19-.18-.29-.14-.19-.3-.39-.48-.58-.18-.2-.43-.39-.75-.6-.32-.2-.67-.39-1.06-.56-.39-.17-.87-.33-1.44-.48-.57-.15-1.2-.29-1.89-.39-.23-.03-.36-.14-.4-.34-.06-.32.17-.56.69-.71.13-.04.29-.07.46-.08.69-.04,1.18-.06,1.48-.05.3,0,.79.04,1.45.1.67.06,1.21.1,1.63.11.01-.03.03-.08.04-.15.01-.07.02-.21.03-.4,0-.2-.01-.38-.05-.57-.04-.18-.12-.38-.25-.61-.13-.22-.3-.41-.53-.57-.22-.16-.53-.29-.93-.4-.4-.11-.87-.17-1.4-.17-2.02,0-3.51.25-4.46.74-.96.49-1.43,1.31-1.43,2.45v.08c.01.55.1,1.03.27,1.43.17.4.38.72.63.94.25.22.58.41.98.57.4.16.78.28,1.13.34.35.07.79.16,1.32.26.53.11.97.21,1.32.32.23.05.43.13.61.23.18.1.3.21.37.33.07.12.09.24.06.36-.03.12-.17.24-.41.34-.24.11-.57.18-.99.22-.69.04-1.18.06-1.48.05-.3,0-.79-.04-1.45-.1-.67-.06-1.21-.1-1.63-.11-.01.03-.03.08-.04.15-.01.07-.02.21-.03.4,0,.19.01.38.05.57.04.18.12.38.25.61.13.22.3.41.53.57.22.15.53.29.93.4.4.11.87.17,1.4.17,2.02,0,3.51-.24,4.46-.74.51-.26.88-.62,1.12-1.07.7-1.24.35-2.28.07-2.8"/>
  </g>
  <g>
    <path class="st1" d="M65.81,22.02c-.31-.32-.46-.71-.46-1.15s.16-.83.48-1.14c.32-.32.7-.47,1.14-.47s.82.16,1.14.47c.32.32.47.7.47,1.14s-.16.82-.47,1.14c-.32.32-.7.47-1.14.47s-.83-.16-1.15-.46M68.46,25.19c0-.66-.11-1.13-.32-1.42s-.46-.43-.74-.43-.61-.02-1.01-.05c-.4-.03-.72-.14-.96-.31v11.41c.98.05,1.74-.04,2.27-.29.53-.25.78-.78.76-1.58v-7.31Z"/>
    <path class="st1" d="M77.41,34.09c-.55.05-1.05.09-1.49.12-.44.03-.94.02-1.52-.02-.58-.04-1.09-.12-1.53-.23-.44-.11-.88-.3-1.34-.57-.46-.26-.84-.59-1.13-.97-.3-.38-.54-.88-.73-1.48-.19-.61-.28-1.3-.28-2.08,0-3.02,1.23-4.83,3.68-5.43,1.27-.32,3.05-.28,5.35.12.55.15.94.3,1.17.45.23.15.34.41.34.78v8.34s.02.03.02.04c.28.77.37,1.44.27,2.03-.1.59-.32,1.09-.65,1.51-.33.42-.78.77-1.35,1.04-.57.27-1.19.47-1.84.6-.65.13-1.35.19-2.09.19-.67,0-1.26-.02-1.77-.07-.5-.05-.88-.1-1.13-.16-.25-.06-.45-.13-.61-.2-.15-.07-.24-.13-.26-.16-.02-.03-.04-.06-.05-.07,0-1.15.17-1.81.52-2.01.34-.2,1.21-.22,2.62-.09.29.03.53.05.69.06,1.13,0,2-.16,2.61-.48.61-.32.77-.74.51-1.26M76.94,25.98h-.12c-.17,0-.42,0-.75-.01-.32,0-.57-.01-.76-.02-.18,0-.41,0-.7.02-.28.02-.51.06-.68.11-.17.06-.35.14-.56.24-.2.11-.36.24-.46.4-.11.16-.2.37-.27.63-.07.26-.11.55-.11.89,0,.58,0,.99.02,1.23s.06.54.14.88c.08.34.21.57.38.69.17.11.43.23.76.34.33.12.74.16,1.24.13.5-.03,1.12-.09,1.86-.18v-5.35Z"/>
    <path class="st1" d="M91.32,27.03v7.35c-.47.03-.88.02-1.21,0-.34-.03-.66-.11-.96-.23-.3-.12-.52-.32-.67-.6-.14-.28-.21-.62-.19-1.04v-5.41c-.2-.98-1.12-1.37-2.75-1.17-.85.11-1.34.19-1.47.24.04.23.06.5.06.81v5.53c.01.42-.05.76-.2,1.04-.15.28-.37.47-.67.6-.3.12-.61.2-.95.23-.34.03-.74.04-1.21,0v-9.83c0-.88,1.41-1.35,4.22-1.41,3.98-.11,5.98,1.19,6,3.9"/>
    <path class="st1" d="M64.35,29.89c-.05-.09-.1-.19-.18-.29-.14-.19-.3-.39-.48-.59-.18-.19-.43-.39-.75-.6-.32-.2-.67-.39-1.06-.56-.39-.17-.87-.33-1.44-.48-.57-.15-1.2-.29-1.89-.39-.23-.03-.36-.14-.4-.34-.06-.32.18-.56.69-.71.13-.04.29-.07.46-.08.69-.04,1.18-.06,1.48-.05.3,0,.79.04,1.45.1.67.06,1.21.1,1.63.11.01-.03.03-.08.04-.15.01-.07.02-.21.03-.4,0-.2,0-.38-.05-.57-.04-.18-.13-.38-.25-.61-.13-.22-.3-.41-.53-.57-.22-.16-.53-.29-.93-.4-.4-.11-.87-.17-1.4-.17-2.02,0-3.51.25-4.46.74-.96.49-1.43,1.31-1.43,2.45v.08c.01.55.1,1.03.27,1.43.17.4.38.72.63.94.25.22.58.41.98.58.4.16.78.28,1.13.34.35.07.79.16,1.32.26.53.11.97.21,1.32.32.23.05.43.13.61.23.18.1.3.21.37.33.07.12.09.24.06.36-.03.12-.17.23-.41.34-.24.11-.57.18-.99.22-.69.04-1.18.06-1.48.05s-.79-.04-1.45-.1c-.67-.06-1.21-.1-1.63-.11-.01.03-.03.08-.04.15-.01.07-.02.21-.03.4,0,.19,0,.38.05.57.04.18.12.38.25.61.13.22.3.41.53.57.22.15.53.29.93.4.4.12.87.17,1.4.17,2.02,0,3.51-.25,4.46-.74.51-.26.88-.62,1.12-1.07.7-1.24.35-2.28.08-2.8"/>
    <path class="st1" d="M101.63,29.89c-.05-.09-.11-.19-.18-.29-.14-.19-.3-.39-.48-.59-.18-.19-.43-.39-.75-.6-.32-.2-.67-.39-1.06-.56-.39-.17-.87-.33-1.44-.48-.57-.15-1.2-.29-1.89-.39-.23-.03-.36-.14-.4-.34-.05-.32.18-.56.69-.71.13-.04.29-.07.46-.08.69-.04,1.18-.06,1.49-.05.3,0,.79.04,1.45.1.67.06,1.21.1,1.63.11.01-.03.03-.08.04-.15.01-.07.02-.21.03-.4,0-.2-.01-.38-.05-.57-.04-.18-.13-.38-.25-.61-.13-.22-.3-.41-.53-.57-.22-.16-.53-.29-.93-.4-.4-.11-.87-.17-1.4-.17-2.02,0-3.51.25-4.46.74-.96.49-1.43,1.31-1.43,2.45v.08c.01.55.1,1.03.27,1.43.17.4.38.72.63.94.25.22.58.41.98.58.4.16.78.28,1.13.34.35.07.79.16,1.32.26.53.11.97.21,1.32.32.23.05.43.13.61.23.17.1.3.21.37.33.07.12.09.24.06.36-.03.12-.17.23-.41.34-.24.11-.57.18-.99.22-.69.04-1.18.06-1.48.05-.3,0-.79-.04-1.45-.1-.67-.06-1.21-.1-1.62-.11-.01.03-.03.08-.04.15-.01.07-.02.21-.03.4,0,.19,0,.38.05.57.04.18.13.38.25.61.13.22.3.41.53.57.22.15.53.29.93.4.4.12.86.17,1.4.17,2.02,0,3.51-.25,4.46-.74.51-.26.89-.62,1.12-1.07.7-1.24.35-2.28.08-2.8"/>
  </g>
</svg>