<?xml version="1.0" encoding="UTF-8"?>
<svg id="Layer_1" xmlns="http://www.w3.org/2000/svg" version="1.1" viewBox="0 0 49.44 42.86">
  <!-- Generator: Adobe Illustrator 30.0.0, SVG Export Plug-In . SVG Version: 2.1.1 Build 123)  -->
  <defs>
    <style>
      .st0 {
        fill: #0088cb;
      }

      .st1 {
        fill: #fff;
      }
    </style>
  </defs>
  <path class="st1" d="M45.96,9.51h-5.61v24.71h-7.71v-12.84l-7.3,9.12h-.16l-6.92-9.04v12.76h0v8.64h27.8c1.87,0,3.39-1.52,3.39-3.39V13c0-1.92-1.56-3.49-3.49-3.49"/>
  <path class="st0" d="M31.52,0L3.48.29c-1.93.02-3.48,1.59-3.48,3.52v24.18c0,1.95,1.58,3.53,3.53,3.53h7.1V9.48h8.19l.71.83h0s1.88,2.22,1.88,2.22l4.08,4.81h0s0,0,0,0l4.77-5.62h0s1.26-1.48,1.26-1.48V0Z"/>
</svg>